PathFileType	4	(X/Y/Z)	Patient4_TMGait_0pt4_01_right_20.trc.trc
DataRate	CameraRate	NumFrames	NumMarkers	Units	OrigDataRate	OrigDataStartFrame	OrigNumFrames
76.923076923077	76.923076923077	4	33	mm	76.923076923077	53	       141
Frame#	Time	Sacral			L.Shoulder			Chest			R.Shoulder			Neck			R.ASIS			L.ASIS			R.Thigh.Superior			R.Thigh.Lateral			R.Thigh.Inferior			R.Patella			L.Thigh.Superior			L.Thigh.Lateral			L.Thigh.Inferior			L.Patella			L.Shank.Superior			L.Shank.Lateral			L.Shank.Inferior			R.Shank.Superior			R.Shank.Lateral			R.Shank.Inferior			R.Heel			R.Midfoot.Superior			R.Midfoot.Lateral			R.Toe			L.Heel			L.Midfoot.Lateral			L.Midfoot.Superior			L.Toe			L.Elbow			L.Wrist			R.Elbow			R.Wrist			
		X1	Y1	Z1	X2	Y2	Z2	X3	Y3	Z3	X4	Y4	Z4	X5	Y5	Z5	X6	Y6	Z6	X7	Y7	Z7	X8	Y8	Z8	X9	Y9	Z9	X10	Y10	Z10	X11	Y11	Z11	X12	Y12	Z12	X13	Y13	Z13	X14	Y14	Z14	X15	Y15	Z15	X16	Y16	Z16	X17	Y17	Z17	X18	Y18	Z18	X19	Y19	Z19	X20	Y20	Z20	X21	Y21	Z21	X22	Y22	Z22	X23	Y23	Z23	X24	Y24	Z24	X25	Y25	Z25	X26	Y26	Z26	X27	Y27	Z27	X28	Y28	Z28	X29	Y29	Z29	X30	Y30	Z30	X31	Y31	Z31	X32	Y32	Z32	X33	Y33	Z33	

53	26.426000000000	687.279428623299	1011.201535487274	527.021021444290	856.575607557268	1446.594177694165	349.754322314892	976.065234069242	1370.776093093642	495.407034896239	912.702916712436	1440.735105146815	678.737669550697	858.739345686335	1499.251274649866	519.118161916787	920.555040203162	946.831960554318	629.709416831982	891.516792601755	972.648815156280	357.720678149069	946.835239746930	740.997453191247	602.811864362603	856.107747660357	635.553021768731	659.528016159533	931.532325341484	580.889304682211	581.312061058811	925.947506309764	498.248003823168	585.750496246217	973.864131581517	787.887645428044	374.213076728508	927.971481661231	664.785384113464	287.793738791677	1034.468959687641	603.375922151913	340.901115004549	1054.652322798863	523.929401614905	330.643010199183	1010.862013310907	449.450500303014	319.160225948674	895.882680500802	362.793917274875	262.971736415943	931.589972694892	234.578099391493	310.979619008375	902.289817515427	409.318715503062	588.367394446210	832.028604898515	300.712738798800	643.356757598870	883.285270851171	210.499908545732	577.998635804185	757.414907186094	41.979903084783	536.202056702662	929.752033619565	99.037835792022	575.032062263605	840.899596042771	36.241893268450	610.875998621192	1048.878740922366	46.352158236916	599.072499458381	780.891234602751	98.378387236013	339.474665108292	850.717799749700	87.842704058756	256.856476225217	943.867378059312	134.981188547345	282.295487490082	1059.419167509587	66.948998956899	245.521591526811	859.947047793315	1228.022269998178	85.957915628589	1009.819656766654	1080.546146727270	-72.463716369841	983.596778930687	1102.664632539843	801.818307174672	1175.618287173353	926.038001548439	802.027524811413	
54	26.439000000000	685.982938016610	1011.487300247125	527.590010767799	854.982858420016	1447.084685906552	350.824347774997	974.897545861039	1370.851228751595	495.905353565257	912.116415832596	1440.307112455415	679.617571264323	857.618515194196	1499.303459500543	520.277106685737	919.402754269391	946.874090965479	629.528302435976	889.726960023885	972.851706498328	357.655105852036	944.050014745570	740.635526986021	602.643894055442	852.591564449018	635.697540805224	659.708378032082	927.341564535141	580.546609731464	581.407161173941	921.245282804111	498.093961209830	585.966647870810	971.036888538169	787.378250498603	373.439047210635	924.036809956929	664.292185343877	287.139708751585	1030.442882901776	602.802155007651	340.307526288318	1051.570436175578	525.279555173107	330.383972984885	1011.217758763851	450.753199150285	318.532252139214	901.561476815383	358.066878081590	261.631884342513	944.556870697582	231.748629118486	309.272602197268	897.431906815567	409.281602946137	588.480826006423	827.041260097144	300.755738087838	643.427170940679	878.224688569559	210.475990484388	578.075720153999	752.195876759188	41.981033635295	536.234111069548	924.566837499184	99.035100186026	575.099174561925	835.683559894372	36.252441971797	610.920105690916	1043.646144904847	46.295289198979	599.142094369641	801.903044807482	87.395505066321	337.035007555360	872.548503767193	80.553743970133	254.705645247215	962.953857521260	132.551789351289	280.496721628399	1082.108524493400	70.600459257913	244.288153846861	857.477251010944	1228.413646810114	86.844528464288	1006.547466453362	1080.411621439785	-71.827694007435	989.878338807647	1103.160445920325	800.242603272029	1188.655432559270	934.304487394689	795.746975933251	
55	26.452000000000	684.635477198224	1011.720001948228	527.941314456182	853.484898755967	1447.483188236675	351.722154505848	973.772908462563	1370.827267640780	496.270147307415	911.517540307554	1439.799303601688	680.330953383952	856.548034789925	1499.277877182725	521.255048531339	918.203880739438	946.810843080573	629.201462335616	887.907611812418	972.952632625288	357.473081654396	941.338532919407	740.229786578684	602.212596269615	849.272854747048	635.775945318202	659.694263435030	923.307517962418	580.174118550463	581.233872107915	916.726495394748	497.888187147672	585.917996915618	967.899266737481	786.548143788819	372.645660288423	919.851331290154	663.621479570468	286.376082559249	1026.019466845781	601.932748310838	339.926316211448	1048.123060552477	526.430806170646	330.287926957647	1011.178035935461	452.058141552924	317.986196371841	907.133464039746	353.644845212504	260.323759600230	957.222275736302	229.572064616484	307.679893549690	892.744132934426	409.188218355781	588.375299909717	822.273280694922	300.762988286906	643.391505999688	873.262686305278	210.393565377251	577.995605590948	746.971793767385	41.978259791352	536.241511426429	919.376715274022	99.004675725261	575.109447852976	830.468925087513	36.267422040765	610.941476337062	1038.417916797944	46.206412036938	599.203564487106	822.889434772588	77.579191245110	334.668315321756	894.273864814839	74.306118163814	252.703789059401	981.746419913683	130.973081063826	278.869205730530	1104.180120370397	75.091205668600	243.409342907285	855.089826288995	1228.750372852361	87.538435533117	1003.349770560535	1080.204513590906	-71.366540550886	995.844025865610	1103.704769364405	798.485478933851	1200.930059859454	942.859816854131	789.299522967706	
56	26.465000000000	683.233000140209	1011.894719120100	528.096965561681	852.080070011672	1447.786591776141	352.434992345557	972.690892434293	1370.704903782429	496.490877887469	910.910913186716	1439.229787002317	680.861969440615	855.533084711241	1499.183602265263	522.031606325379	916.967229565827	946.654444500062	628.734901917637	886.047633344145	972.968778299158	357.167861898513	938.720654982865	739.787655775411	601.537719908901	846.165514973314	635.788717806843	659.486611469036	919.457378682393	579.770825534290	580.805808772249	912.414364501625	497.631525174257	585.605616304702	964.520737467833	785.504798898203	371.844071356940	915.605238711089	662.870489529291	285.501467175375	1021.428908119946	600.924696382350	339.724410255538	1044.535155836704	527.469367471380	330.301721612692	1010.887879511708	453.401148867496	317.506470976972	912.552447718697	349.690932761707	259.103379472556	969.352404268148	228.132351635112	306.282207239071	888.245655352075	409.039367403128	588.055791107892	817.735100577538	300.739779420915	643.256049040384	868.404964916190	210.256070144039	577.767490920022	741.744210110783	41.975040121341	536.228432731026	914.183325428727	98.947793507275	575.066167943800	825.254887453790	36.286230636689	610.939169031517	1033.195442140932	46.081337415550	599.255443458187	843.353093146468	69.185328192683	332.541174910026	915.377869998599	69.256365597821	250.986901303899	999.830025355333	130.297107181584	277.502021388257	1125.159431320011	80.313891151417	242.928352254732	852.796989308500	1229.023339945060	88.035753729950	1000.249697797090	1079.916826904308	-71.077155734189	1001.481789741942	1104.301089778175	796.571620929860	1212.392839515704	951.626226124098	782.756067744120	
